<svg width="22" height="22" viewBox="0 0 22 22" fill="none" xmlns="http://www.w3.org/2000/svg">
<path d="M17.4167 12.4539V9.16671C17.4167 6.21779 15.4137 3.73362 12.7004 2.98654C12.4318 2.31004 11.7755 1.83337 11 1.83337C10.2245 1.83337 9.56817 2.31004 9.29958 2.98654C6.58625 3.73454 4.58333 6.21779 4.58333 9.16671V12.4539L3.01858 14.0186C2.9333 14.1036 2.86566 14.2046 2.81956 14.3158C2.77347 14.4271 2.74983 14.5463 2.75 14.6667V16.5C2.75 16.7432 2.84658 16.9763 3.01849 17.1482C3.19039 17.3201 3.42355 17.4167 3.66667 17.4167H18.3333C18.5764 17.4167 18.8096 17.3201 18.9815 17.1482C19.1534 16.9763 19.25 16.7432 19.25 16.5V14.6667C19.2502 14.5463 19.2265 14.4271 19.1804 14.3158C19.1343 14.2046 19.0667 14.1036 18.9814 14.0186L17.4167 12.4539ZM17.4167 15.5834H4.58333V15.0462L6.14808 13.4815C6.23337 13.3965 6.30101 13.2955 6.34711 13.1842C6.3932 13.073 6.41684 12.9538 6.41667 12.8334V9.16671C6.41667 6.63946 8.47275 4.58337 11 4.58337C13.5272 4.58337 15.5833 6.63946 15.5833 9.16671V12.8334C15.5833 13.0772 15.6796 13.31 15.8519 13.4815L17.4167 15.0462V15.5834ZM11 20.1667C11.5677 20.1674 12.1215 19.9913 12.5844 19.6627C13.0474 19.3341 13.3965 18.8695 13.5832 18.3334H8.41683C8.60352 18.8695 8.9526 19.3341 9.41555 19.6627C9.8785 19.9913 10.4323 20.1674 11 20.1667Z" fill="#3670C7"/>
</svg>
